<?xml version="1.0" standalone="no"?>
<!DOCTYPE svg PUBLIC "-//W3C//DTD SVG 20010904//EN"
 "http://www.w3.org/TR/2001/REC-SVG-20010904/DTD/svg10.dtd">
<svg version="1.0" xmlns="http://www.w3.org/2000/svg"
 width="261.000000pt" height="261.000000pt" viewBox="0 0 261.000000 261.000000"
 preserveAspectRatio="xMidYMid meet">
<metadata>
Created by potrace 1.11, written by Peter Selinger 2001-2013
</metadata>
<g transform="translate(0.000000,261.000000) scale(0.100000,-0.100000)"
fill="#000000" stroke="none">
<path d="M1170 2599 c-52 -6 -87 -12 -155 -24 -59 -12 -212 -68 -290 -107
-246 -124 -447 -323 -573 -565 -42 -81 -106 -258 -117 -323 -3 -19 -7 -46 -10
-60 -18 -102 -23 -253 -10 -360 61 -536 452 -985 971 -1114 366 -92 731 -29
1043 177 97 65 111 77 212 178 163 166 296 408 338 619 6 30 13 69 17 85 13
62 12 312 -2 396 -44 277 -168 522 -363 718 -199 201 -443 326 -720 371 -85
14 -261 19 -341 9z"/>
</g>
</svg>
